<?xml version="1.0" encoding="UTF-8"?>
<!DOCTYPE svg PUBLIC "-//W3C//DTD SVG 1.1//EN" "http://www.w3.org/Graphics/SVG/1.1/DTD/svg11.dtd">
<!-- Creator: CorelDRAW -->
<svg xmlns="http://www.w3.org/2000/svg" xml:space="preserve" width="512px" height="512px" version="1.1" style="shape-rendering:geometricPrecision; text-rendering:geometricPrecision; image-rendering:optimizeQuality; fill-rule:evenodd; clip-rule:evenodd"
viewBox="0 0 512 512"
 xmlns:xlink="http://www.w3.org/1999/xlink">
 <defs>
  <style type="text/css">
   <![CDATA[
    .fil0 {fill:#4D4D4D}
    .fil1 {fill:#7ED63F}
    .fil3 {fill:#99A4AC}
    .fil2 {fill:#D9F2F2}
   ]]>
  </style>
 </defs>
 <g id="Layer_x0020_1">
  <metadata id="CorelCorpID_0Corel-Layer"/>
  <path class="fil0" d="M144 323c-1,0 -3,0 -4,-1 -19,-5 -39,-13 -60,-25l0 164 19 0c4,0 7,3 7,7l0 37c0,4 -3,7 -7,7l-52 0c-4,0 -7,-3 -7,-7l0 -37c0,-4 3,-7 7,-7l19 0 0 -407c-30,-8 -24,-54 7,-54 33,0 38,47 7,54l0 22c24,12 45,19 64,23 1,0 2,0 3,1 67,13 111,-14 150,-39 26,-16 50,-31 78,-32 30,-2 60,14 94,48 1,2 2,3 2,5l1 205c0,7 -8,10 -12,5 -116,-120 -152,35 -279,35 -16,0 -36,-4 -37,-4zm-7 -16l0 -195c-18,-4 -36,-11 -57,-20l0 189c21,12 40,21 57,26zm14 -192l0 195c62,13 103,-15 141,-41 49,-33 95,-64 166,2l-1 -186c-65,-66 -102,-44 -152,-12 -39,24 -85,53 -154,42zm-97 383l38 0 0 -23 -38 0 0 23zm19 -484c-17,0 -18,27 0,27 19,0 18,-27 0,-27z"/>
  <path class="fil1" d="M151 310c62,13 103,-15 141,-41 49,-33 95,-64 166,2l-1 -186c-65,-66 -102,-44 -152,-12 -39,24 -85,53 -154,42l0 195z"/>
  <path class="fil2" d="M137 307l0 -195c-18,-4 -36,-11 -57,-20l0 189c21,12 40,21 57,26z"/>
  <path class="fil3" d="M73 41c19,0 18,-27 0,-27 -17,0 -18,27 0,27z"/>
  <polygon class="fil3" points="92,475 54,475 54,498 92,498 "/>
 </g>
</svg>
